<svg id="_001-cancel" data-name="001-cancel" xmlns="http://www.w3.org/2000/svg" width="22.598" height="22.597" viewBox="0 0 22.598 22.597">
  <g id="Group_12" data-name="Group 12">
    <path id="Path_6" data-name="Path 6" d="M13.788,11.314l8.449-8.449a1.238,1.238,0,0,0,0-1.748L21.5.377a1.239,1.239,0,0,0-1.748,0L11.3,8.826,2.85.377A1.238,1.238,0,0,0,1.1.377l-.741.74a1.237,1.237,0,0,0,0,1.748l8.449,8.449L.362,19.763a1.24,1.24,0,0,0,0,1.748l.741.74a1.238,1.238,0,0,0,1.748,0L11.3,13.8l8.449,8.449a1.226,1.226,0,0,0,.874.361h0a1.226,1.226,0,0,0,.874-.361l.74-.74a1.239,1.239,0,0,0,0-1.748Z" transform="translate(0 -0.016)" fill="#cecece"/>
  </g>
</svg>
