<svg xmlns="http://www.w3.org/2000/svg" width="31" height="27" viewBox="0 0 31 27">
  <g id="Group_11" data-name="Group 11" transform="translate(0.47)">
    <g id="arrows" transform="translate(23.62 4.295) rotate(90)">
      <g id="Group_5" data-name="Group 5" transform="translate(10.661 0.595)">
        <g id="Group_4" data-name="Group 4" transform="translate(0 0)">
          <path id="Path_4" data-name="Path 4" d="M7.824,10.865a1.176,1.176,0,0,0-.112-.1,1.214,1.214,0,0,0-1.554.17l-.37.37a1.76,1.76,0,0,0-.317.434l-.229.44V1.25A1.214,1.214,0,0,0,4.269.013,1.173,1.173,0,0,0,2.926,1.186v10.98l-.158-.346a1.759,1.759,0,0,0-.346-.5l-.387-.387a1.214,1.214,0,0,0-1.554-.17,1.173,1.173,0,0,0-.152,1.76L3.26,15.456a1.173,1.173,0,0,0,1.659,0h0l2.933-2.933A1.173,1.173,0,0,0,7.824,10.865Z" fill="#fff"/>
        </g>
      </g>
      <g id="Group_7" data-name="Group 7" transform="translate(0 0)">
        <g id="Group_6" data-name="Group 6">
          <path id="Path_5" data-name="Path 5" d="M7.86,3.242,4.968.344a1.173,1.173,0,0,0-1.659,0h0L.376,3.277a1.214,1.214,0,0,0-.17,1.554,1.173,1.173,0,0,0,1.76.152l.4-.4a1.76,1.76,0,0,0,.422-.68l.158-.364V14.62a1.214,1.214,0,0,0,.985,1.238,1.173,1.173,0,0,0,1.361-1.173V3.541l.117.334a1.76,1.76,0,0,0,.416.657l.422.422a1.173,1.173,0,0,0,1.659,0q.034-.034.065-.071A1.22,1.22,0,0,0,7.86,3.242Z" fill="#fff"/>
        </g>
      </g>
    </g>
    <g id="Rectangle_7" data-name="Rectangle 7" transform="translate(-0.47)" fill="none" stroke="#fff" stroke-width="1">
      <rect width="31" height="27" rx="11" stroke="none"/>
      <rect x="0.5" y="0.5" width="30" height="26" rx="10.5" fill="none"/>
    </g>
  </g>
</svg>
